<svg width="557" height="181" viewBox="0 0 557 181" fill="none" xmlns="http://www.w3.org/2000/svg">
<path d="M116.401 0.0151268H120.353V24.3441H117.438C113.283 15.3941 104.342 4.73973 93.3209 4.73973C79.7033 4.73973 79.9119 17.4059 79.9119 27.1577V59.7307C79.9119 63.8503 80.2247 70.1834 85.8344 70.1834C93.2166 70.1834 92.1791 60.9358 92.1791 56.0095V37.9128H86.1524V35.0992H127.834V37.9128H122.219V64.7579C118.135 64.7379 114.083 65.4526 110.27 66.8655C96.4437 71.9078 92.5962 72.6995 85.3234 72.6995C62.2487 72.6995 46.3424 58.4197 46.3424 37.3128C46.3424 10.7703 68.5882 0 85.2192 0C92.7995 0.0151268 100.291 1.62361 106.631 5.74315L116.401 0.0151268Z" fill="white"/>
<path d="M125.123 71.1868V68.4741H127.511C130.837 68.4741 133.334 62.5443 134.997 58.2231L156.404 1.52783H178.144L203.815 68.4791H209.55V71.1918H163.385V68.4791H170.866L163.489 47.9671H142.489L138.318 58.7223C135.409 66.2857 139.564 68.4741 142.27 68.4741H145.075V71.1868H125.123ZM152.885 19.7203L143.427 45.2544H162.446L152.885 19.7203Z" fill="white"/>
<path d="M277.095 0.0151268H281.047V24.3441H278.138C273.967 15.3941 265.037 4.73973 254.021 4.73973C240.403 4.73973 240.612 17.4059 240.612 27.1577V59.7307C240.612 63.8503 240.924 70.1834 246.539 70.1834C253.916 70.1834 252.879 60.9358 252.879 56.0095V37.9128H246.847V35.0992H288.528V37.9128H282.919V64.7579C278.833 64.7379 274.78 65.4526 270.964 66.8655C257.138 71.9078 253.296 72.6995 246.018 72.6995C222.943 72.6995 207.042 58.4197 207.042 37.3128C207.042 10.7703 229.283 0 245.914 0C253.499 0 260.986 1.60848 267.325 5.72802L277.095 0.0151268Z" fill="white"/>
<path d="M291.547 71.1868V68.4741H294.154C298.622 68.4741 299.977 63.5478 299.977 58.924V9.56521C298.001 7.04408 296.328 4.13469 293.116 4.13469H291.552V1.52783H331.054L359.207 38.8406V9.26267C359.207 6.44909 355.985 4.2204 352.138 4.2204H350.052V1.52783H371.464V4.23553H368.336C362.93 4.23553 363.034 8.15842 363.034 16.4025V71.1868H345.595L303.6 15.2932V58.924C303.6 63.5478 304.643 68.4741 309.632 68.4741H312.959V71.1868H291.547Z" fill="white"/>
<path d="M370.646 71.1868V68.4741H378.341V4.23553H370.646V1.52783H440.391L440.912 25.9576H437.482C434.568 14.8949 427.503 4.23553 416.175 4.23553H409.83V34.6959H411.597C414.819 34.6959 422.097 31.3781 423.03 21.0263H426.461V51.6883H423.03C422.097 40.7315 414.819 37.4137 411.597 37.4137H409.83V68.4741H416.899C424.798 68.4741 433.009 62.8469 438.728 44.6493H441.856L441.335 71.1868H370.646Z" fill="white"/>
<path d="M516.164 1.52783V4.63891L482.589 68.4741H488.621C498.391 68.4741 508.99 61.4149 512.733 44.5485H516.164L515.335 71.1868H448.081V67.3698L481.134 4.23553H477.605C464.712 4.23553 455.985 14.3907 452.763 26.0534H449.744L450.995 1.52783H516.164Z" fill="white"/>
<path d="M229.773 96.2265C229.496 97.7392 229.679 98.188 230.231 98.188C230.878 98.188 231.769 97.3863 232.724 94.5273H233.433C232.447 97.714 230.909 100.24 227.249 100.24C223.96 100.24 222.036 99.1107 222.849 94.5576L225.498 80.0409H222.761L222.912 79.1736H225.221C227.802 79.1736 230.231 79.0274 232.942 78.8509L229.773 96.2265Z" fill="white"/>
<path d="M254.719 94.6182C253.212 99.4386 251.179 100.24 248.567 100.24C245.955 100.24 244.688 98.3948 244.782 96.1056L244.719 96.0451C244.198 98.7528 242.634 100.24 239.704 100.24C235.705 100.24 233.86 97.2149 233.86 93.6853C233.86 89.2834 237.431 85.3253 241.555 85.3253C243.922 85.3253 245.303 86.127 245.95 88.3506H246.012L246.534 85.5824L248.072 85.6732C248.63 85.7034 249.182 85.7337 249.735 85.7337C250.72 85.7337 252.07 85.6429 253.426 85.5824L251.518 95.314C251.122 97.4267 251.241 97.9965 251.857 97.9965C252.842 97.9965 253.733 95.314 254.01 94.603L254.719 94.6182ZM244.323 87.2464C243.369 87.2464 243.093 87.4228 242.478 89.354C241.884 91.4957 241.534 93.6937 241.435 95.909C241.435 97.2502 241.743 98.0822 242.571 98.0822C243.557 98.0822 243.927 97.341 244.605 94.3055C245.001 92.6153 245.218 90.8902 245.251 89.1574C245.246 88.5775 245.246 87.2464 244.323 87.2464Z" fill="white"/>
<path d="M263.884 91.0785C265.02 87.4783 267.45 85.3051 270.375 85.3051C272.742 85.3051 274.545 86.7926 274.545 89.1423C274.545 91.7038 272.794 94.5577 272.794 97.0587C272.794 98.1881 273.899 98.8436 274.978 98.8436C279.008 98.8436 281.651 92.9492 281.651 90.9273C281.651 90.66 281.651 90.3928 281.469 90.3928C281.099 90.3928 280.207 91.2248 279.097 91.2248C278.716 91.2469 278.335 91.1917 277.978 91.0627C277.622 90.9337 277.297 90.7337 277.024 90.4757C276.752 90.2177 276.539 89.9075 276.399 89.5649C276.258 89.2223 276.193 88.8551 276.209 88.4868C276.186 88.071 276.253 87.6552 276.404 87.2654C276.556 86.8756 276.789 86.5203 277.089 86.2216C277.389 85.9229 277.749 85.6874 278.148 85.5297C278.546 85.372 278.974 85.2955 279.404 85.3051C281.714 85.3051 282.85 87.4783 282.85 89.707C282.85 91.8197 281.25 95.4502 280.145 96.8771C278.852 98.5461 276.636 100.24 272.324 100.24C266.944 100.24 266.021 97.1192 266.021 95.7477C266.021 92.087 267.648 90.1255 267.648 88.4011C267.655 88.3208 267.646 88.2399 267.62 88.1632C267.594 88.0865 267.553 88.0156 267.499 87.9545C267.444 87.8935 267.378 87.8435 267.303 87.8076C267.229 87.7718 267.147 87.7507 267.064 87.7456C266.449 87.7456 265.5 88.6078 264.635 91.0785H263.884Z" fill="white"/>
<path d="M295.567 94.3057C294.211 99.3026 291.844 100.135 289.472 100.135C286.923 100.135 285.447 98.7681 285.447 96.1007C285.447 93.4334 286.829 89.9139 286.829 88.9306C286.829 88.5424 286.798 87.9222 286.182 87.9222C285.353 87.9222 284.827 89.5307 284.274 91.4518H283.612C284.446 87.7608 285.797 85.401 289.243 85.401C291.948 85.401 293.674 87.1558 293.674 89.8937C293.674 92.4148 292.11 96.0503 292.11 97.0336C292.11 97.447 292.293 97.6891 292.694 97.6891C293.737 97.6891 294.477 95.0368 294.779 94.2956L295.567 94.3057ZM290.306 84.0699C288.429 84.0699 286.245 83.5354 286.245 81.3319C286.245 79.3705 288.612 78.8663 290.181 78.8663C292.027 78.8663 294.274 79.4613 294.274 81.6294C294.274 83.5505 291.907 84.0548 290.306 84.0548V84.0699Z" fill="white"/>
<path d="M314.45 95.8182C311.901 98.9696 308.267 100.25 304.117 100.25C299.566 100.25 296.208 98.0771 296.208 93.9122C296.208 89.6011 301.072 85.3403 307.964 85.3403C310.545 85.3403 314.914 86.2026 314.914 89.3741C314.914 92.2331 311.265 93.9122 306.729 93.9122C305.561 93.9122 304.795 93.8517 303.992 93.8265C303.824 94.4681 303.731 95.1261 303.715 95.7879C303.715 97.7241 304.518 98.9393 306.322 98.9393C307.682 98.959 309.03 98.6897 310.27 98.1504C311.511 97.6111 312.614 96.8149 313.501 95.8182H314.45ZM306.703 86.1774C305.869 86.1774 305.498 86.8328 305.139 88.1136C304.66 89.792 304.311 91.5028 304.096 93.2315C304.925 93.2315 306.004 93.1407 306.494 92.7525C307.354 92.0415 308.058 89.6565 308.058 87.5186C308.022 86.5858 307.777 86.1673 306.703 86.1673V86.1774Z" fill="white"/>
<path d="M332.785 80.0107L332.937 79.1484H335.303C337.91 79.1484 340.319 78.9972 343.025 78.8207L339.735 96.9981C339.641 97.5325 339.829 97.951 340.168 97.951C341.242 97.951 341.982 95.3039 342.321 94.5576H343.045C342.342 97.472 340.804 100.24 337.311 100.24C334.448 100.24 333.312 98.9595 333.249 96.2821H333.187C332.509 98.7225 330.663 100.24 327.926 100.24C323.756 100.24 322.113 96.7611 322.113 93.4584C322.113 90.0347 324.944 85.305 329.496 85.305C330.43 85.2516 331.36 85.4614 332.173 85.9089C332.987 86.3563 333.648 87.0223 334.078 87.8262H334.183L335.601 80.0308L332.785 80.0107ZM329.735 96.2518C329.735 97.7141 330.2 98.188 330.94 98.188C331.555 98.188 332.139 97.7998 332.843 94.9156C333.356 93.0509 333.631 91.1322 333.661 89.2027C333.661 87.8917 333.322 87.5085 332.462 87.5085C331.263 87.5085 330.736 89.591 330.309 91.7037C329.963 93.1977 329.771 94.7212 329.735 96.2518V96.2518Z" fill="white"/>
<path d="M362.497 95.8182C359.942 98.9696 356.314 100.25 352.158 100.25C347.607 100.25 344.255 98.0771 344.255 93.9122C344.255 89.6011 349.114 85.3403 356.006 85.3403C358.613 85.3403 362.961 86.2026 362.961 89.3741C362.961 92.2331 359.311 93.9122 354.776 93.9122C353.608 93.9122 352.836 93.8517 352.039 93.8265C351.868 94.4677 351.775 95.1259 351.762 95.7879C351.762 97.7241 352.56 98.9393 354.369 98.9393C355.728 98.9583 357.075 98.6886 358.314 98.1493C359.554 97.61 360.656 96.8143 361.543 95.8182H362.497ZM354.744 86.1774C353.915 86.1774 353.545 86.8328 353.18 88.1136C352.701 89.7921 352.353 91.5028 352.138 93.2315C352.967 93.2315 354.04 93.1407 354.536 92.7525C355.396 92.0415 356.1 89.6565 356.1 87.5186C356.079 86.5858 355.823 86.1673 354.744 86.1673V86.1774Z" fill="white"/>
<path d="M68.2963 132.546H64.9701C62.2643 123.999 55.5859 112.437 45.013 112.437C37.3179 112.437 33.4756 114.248 33.4756 136.363V155.766C33.4756 172.254 38.8768 175.471 46.1547 175.471C57.5879 175.471 64.4488 165.417 66.3204 155.564H69.5423C67.6707 171.851 55.4034 180.498 38.981 180.498C16.0053 180.498 0 166.123 0 143.604C0 123.097 16.8395 107.804 37.8341 107.804C43.449 107.804 46.5666 108.812 51.7644 110.521C53.6361 111.121 54.9863 112.226 56.858 112.226C58.104 112.226 58.9434 111.525 59.9861 110.92L65.5957 107.804H68.2963V132.546Z" fill="white"/>
<path d="M73.5877 179.016V176.298H81.6999V112.039H73.5877V109.322H117.558V112.039H112.866V141.789H125.123V112.039H120.431V109.322H164.536V112.039H156.325V176.273H164.536V179.016H120.467V176.298H125.159V144.532H112.882V176.298H117.574V179.016H73.5877Z" fill="white"/>
<path d="M163.917 179.016V176.298H166.309C169.636 176.298 172.128 170.368 173.791 166.047L195.202 109.347H216.927L242.603 176.298H248.338V179.016H202.168V176.298H209.649L202.282 155.766H181.277L177.107 166.526C174.197 174.064 178.353 176.273 181.058 176.273H183.863V179.016H163.917ZM191.668 127.544L182.211 153.053H201.24L191.668 127.544Z" fill="white"/>
<path d="M262.143 112.039C249.98 113.048 245.2 125.104 242.812 134.956H239.59L240.111 109.322H316.191L316.713 134.956H313.491C311.098 125.104 306.317 113.043 294.154 112.039V176.273H303.617V179.016H252.582V176.298H262.143V112.039Z" fill="white"/>
<path d="M321.598 179.016V176.298H329.293V112.039H321.598V109.322H391.343L391.865 133.751H388.434C385.525 122.694 378.456 112.039 367.127 112.039H360.771V142.5H362.539C365.761 142.5 373.034 139.182 373.972 128.825H377.397V159.487H373.972C373.049 148.53 365.776 145.233 362.554 145.233H360.771V176.293H367.836C375.734 176.293 383.95 170.666 389.664 152.468H392.793L392.271 179.011L321.598 179.016Z" fill="white"/>
<path d="M396.853 179.016V176.298H399.241C402.567 176.298 405.065 170.368 406.728 166.047L428.139 109.347H449.864L475.535 176.298H481.27V179.016H435.105V176.298H442.586L435.209 155.791H414.209L410.038 166.551C407.129 174.09 411.284 176.298 413.985 176.298H416.795V179.016H396.853ZM424.605 127.544L415.147 153.053H434.166L424.605 127.544Z" fill="white"/>
<path d="M476.995 109.322H525.324V112.039H516.695V165.114C516.695 172.052 521.909 175.169 528.963 175.169C538.112 175.169 544.035 171.346 544.035 153.457V123.899C544.035 114.45 542.163 112.039 537.382 112.039H534.682V109.322H556.094V112.039H552.663C549.853 112.039 547.674 114.248 547.674 124.403V160.289C547.674 167.933 544.139 173.563 537.07 177.18C533.744 178.89 526.987 180.498 517.53 180.498C512.039 180.454 506.569 179.847 501.212 178.688C494.246 177.281 485.41 173.56 485.41 158.484V112.039H476.995V109.322Z" fill="white"/>
<path d="M201.24 105.52H197.866L203.007 98.143H208.273L213.371 105.52H210.04L205.661 101.728L201.24 105.52Z" fill="white"/>
</svg>
