<svg width="557" height="181" fill="none" xmlns="http://www.w3.org/2000/svg"><path d="M116.401.015h3.952v24.33h-2.915c-4.155-8.95-13.096-19.605-24.117-19.605-13.618 0-13.41 12.666-13.41 22.418V59.73c0 4.12.314 10.452 5.923 10.452 7.383 0 6.345-9.247 6.345-14.174V37.913h-6.027v-2.814h41.682v2.814h-5.615v26.845a33.927 33.927 0 0 0-11.949 2.108C96.444 71.907 92.596 72.7 85.323 72.7c-23.074 0-38.98-14.28-38.98-35.387C46.342 10.77 68.587 0 85.218 0c7.58.015 15.072 1.624 21.412 5.743L116.4.015zm8.722 71.172v-2.713h2.388c3.326 0 5.823-5.93 7.486-10.25l21.407-56.696h21.74l25.671 66.951h5.735v2.713h-46.165v-2.713h7.481l-7.377-20.512h-21l-4.171 10.755c-2.909 7.564 1.246 9.752 3.952 9.752h2.805v2.713h-19.952zm27.762-51.467l-9.458 25.534h19.019l-9.561-25.534zM277.095.015h3.952v24.33h-2.909c-4.171-8.95-13.101-19.605-24.117-19.605-13.618 0-13.409 12.666-13.409 22.418V59.73c0 4.12.312 10.452 5.927 10.452 7.377 0 6.34-9.247 6.34-14.174V37.913h-6.032v-2.814h41.681v2.814h-5.609v26.845a33.964 33.964 0 0 0-11.955 2.108c-13.826 5.042-17.668 5.834-24.946 5.834-23.075 0-38.976-14.28-38.976-35.387C207.042 10.77 229.283 0 245.914 0c7.585 0 15.072 1.608 21.411 5.728l9.77-5.713zm14.452 71.172v-2.713h2.607c4.468 0 5.823-4.926 5.823-9.55V9.565c-1.976-2.52-3.649-5.43-6.861-5.43h-1.564V1.528h39.502l28.153 37.313V9.263c0-2.814-3.222-5.043-7.069-5.043h-2.086V1.528h21.412v2.708h-3.128c-5.406 0-5.302 3.922-5.302 12.166v54.785h-17.439L303.6 15.293v43.631c0 4.624 1.043 9.55 6.032 9.55h3.327v2.713h-21.412z" fill="#fff"/><path d="M370.646 71.187v-2.713h7.695V4.236h-7.695V1.528h69.745l.521 24.43h-3.43c-2.914-11.063-9.979-21.722-21.307-21.722h-6.345v30.46h1.767c3.222 0 10.5-3.318 11.433-13.67h3.431v30.662h-3.431c-.933-10.957-8.211-14.274-11.433-14.274h-1.767v31.06h7.069c7.899 0 16.11-5.627 21.829-23.825h3.128l-.521 26.538h-70.689zM516.164 1.528v3.11l-33.575 63.836h6.032c9.77 0 20.369-7.06 24.112-23.926h3.431l-.829 26.639h-67.254V67.37l33.053-63.134h-3.529c-12.893 0-21.62 10.155-24.842 21.817h-3.019l1.251-24.525h65.169zM229.773 96.227c-.277 1.512-.094 1.961.458 1.961.647 0 1.538-.802 2.493-3.66h.709c-.986 3.186-2.524 5.712-6.184 5.712-3.289 0-5.213-1.13-4.4-5.682l2.649-14.517h-2.737l.151-.867h2.309c2.581 0 5.01-.147 7.721-.323l-3.169 17.376zm24.946-1.609c-1.507 4.82-3.54 5.622-6.152 5.622s-3.879-1.845-3.785-4.134l-.063-.06c-.521 2.707-2.085 4.194-5.015 4.194-3.999 0-5.844-3.025-5.844-6.555 0-4.402 3.571-8.36 7.695-8.36 2.367 0 3.748.802 4.395 3.026h.062l.522-2.769 1.538.091c.558.03 1.11.06 1.663.06.985 0 2.335-.09 3.691-.15l-1.908 9.731c-.396 2.113-.277 2.683.339 2.683.985 0 1.876-2.683 2.153-3.394l.709.015zm-10.396-7.372c-.954 0-1.23.177-1.845 2.108a29.44 29.44 0 0 0-1.043 6.555c0 1.341.308 2.173 1.136 2.173.986 0 1.356-.741 2.034-3.776.396-1.69.613-3.416.646-5.149-.005-.58-.005-1.91-.928-1.91zm19.561 3.833c1.136-3.6 3.566-5.774 6.491-5.774 2.367 0 4.17 1.488 4.17 3.837 0 2.562-1.751 5.416-1.751 7.917 0 1.13 1.105 1.785 2.184 1.785 4.03 0 6.673-5.895 6.673-7.917 0-.267 0-.534-.182-.534-.37 0-1.262.832-2.372.832a2.814 2.814 0 0 1-1.119-.162 2.756 2.756 0 0 1-.954-.587 2.625 2.625 0 0 1-.625-.911 2.541 2.541 0 0 1-.19-1.078 2.932 2.932 0 0 1 .195-1.222c.152-.39.385-.745.685-1.043.3-.3.66-.535 1.059-.692a3.218 3.218 0 0 1 1.256-.225c2.31 0 3.446 2.173 3.446 4.402 0 2.113-1.6 5.743-2.705 7.17-1.293 1.67-3.509 3.363-7.821 3.363-5.38 0-6.303-3.12-6.303-4.492 0-3.661 1.627-5.623 1.627-7.347a.582.582 0 0 0-.149-.447.63.63 0 0 0-.435-.208c-.615 0-1.564.862-2.429 3.333h-.751zm31.683 3.227c-1.356 4.997-3.723 5.829-6.095 5.829-2.549 0-4.025-1.367-4.025-4.034 0-2.668 1.382-6.187 1.382-7.17 0-.389-.031-1.009-.647-1.009-.829 0-1.355 1.609-1.908 3.53h-.662c.834-3.691 2.185-6.051 5.631-6.051 2.705 0 4.431 1.755 4.431 4.493 0 2.52-1.564 6.156-1.564 7.14 0 .413.183.655.584.655 1.043 0 1.783-2.652 2.085-3.393l.788.01zm-5.261-10.236c-1.877 0-4.061-.535-4.061-2.738 0-1.961 2.367-2.466 3.936-2.466 1.846 0 4.093.595 4.093 2.763 0 1.921-2.367 2.426-3.968 2.426v.015zm24.144 11.748c-2.549 3.152-6.183 4.432-10.333 4.432-4.551 0-7.909-2.173-7.909-6.338 0-4.31 4.864-8.572 11.756-8.572 2.581 0 6.95.863 6.95 4.034 0 2.86-3.649 4.538-8.185 4.538-1.168 0-1.934-.06-2.737-.086a8.559 8.559 0 0 0-.277 1.962c0 1.936.803 3.151 2.607 3.151 1.36.02 2.708-.25 3.948-.789a9.264 9.264 0 0 0 3.231-2.332h.949zm-7.747-9.64c-.834 0-1.205.655-1.564 1.936a33.89 33.89 0 0 0-1.043 5.117c.829 0 1.908-.09 2.398-.478.86-.712 1.564-3.097 1.564-5.234-.036-.933-.281-1.352-1.355-1.352v.01zm26.082-6.168l.152-.862h2.366c2.607 0 5.016-.15 7.722-.327l-3.29 18.177c-.094.534.094.953.433.953 1.074 0 1.814-2.647 2.153-3.393h.724c-.703 2.914-2.241 5.682-5.734 5.682-2.863 0-3.999-1.28-4.062-3.958h-.062c-.678 2.44-2.524 3.958-5.261 3.958-4.17 0-5.813-3.479-5.813-6.782 0-3.423 2.831-8.153 7.383-8.153a4.969 4.969 0 0 1 2.677.604 4.748 4.748 0 0 1 1.905 1.917h.105l1.418-7.795-2.816-.02zm-3.05 16.242c0 1.462.465 1.936 1.205 1.936.615 0 1.199-.388 1.903-3.272a22.88 22.88 0 0 0 .818-5.713c0-1.311-.339-1.695-1.199-1.695-1.199 0-1.726 2.083-2.153 4.196a22.5 22.5 0 0 0-.574 4.548zm32.762-.434c-2.555 3.152-6.183 4.432-10.339 4.432-4.551 0-7.903-2.173-7.903-6.338 0-4.31 4.859-8.572 11.751-8.572 2.607 0 6.955.863 6.955 4.034 0 2.86-3.65 4.538-8.185 4.538-1.168 0-1.94-.06-2.737-.086a8.238 8.238 0 0 0-.277 1.962c0 1.936.798 3.151 2.607 3.151a9.557 9.557 0 0 0 3.945-.79 9.27 9.27 0 0 0 3.229-2.33h.954zm-7.753-9.64c-.829 0-1.199.655-1.564 1.936a33.89 33.89 0 0 0-1.042 5.117c.829 0 1.902-.09 2.398-.478.86-.712 1.564-3.097 1.564-5.234-.021-.933-.277-1.352-1.356-1.352v.01zM68.296 132.546H64.97c-2.706-8.547-9.384-20.109-19.957-20.109-7.695 0-11.537 1.811-11.537 23.926v19.403c0 16.488 5.4 19.705 12.679 19.705 11.433 0 18.294-10.054 20.165-19.907h3.222c-1.871 16.287-14.139 24.934-30.561 24.934C16.005 180.498 0 166.123 0 143.604c0-20.507 16.84-35.8 37.834-35.8 5.615 0 8.733 1.008 13.93 2.717 1.872.6 3.222 1.705 5.094 1.705 1.246 0 2.085-.701 3.128-1.306l5.61-3.116h2.7v24.742zm5.292 46.47v-2.718H81.7v-64.259h-8.112v-2.717h43.97v2.717h-4.692v29.75h12.257v-29.75h-4.692v-2.717h44.105v2.717h-8.211v64.234h8.211v2.743h-44.069v-2.718h4.692v-31.766h-12.277v31.766h4.692v2.718H73.588z" fill="#fff"/><path d="M163.917 179.016v-2.718h2.392c3.327 0 5.819-5.93 7.482-10.251l21.411-56.7h21.725l25.676 66.951h5.735v2.718h-46.17v-2.718h7.481l-7.367-20.532h-21.005l-4.17 10.76c-2.91 7.538 1.246 9.747 3.951 9.747h2.805v2.743h-19.946zm27.751-51.472l-9.457 25.509h19.029l-9.572-25.509zm70.475-15.505c-12.163 1.009-16.943 13.065-19.331 22.917h-3.222l.521-25.634h76.08l.522 25.634h-3.222c-2.393-9.852-7.174-21.913-19.337-22.917v64.234h9.463v2.743h-51.035v-2.718h9.561v-64.259zm59.455 66.977v-2.718h7.695v-64.259h-7.695v-2.717h69.745l.522 24.429h-3.431c-2.909-11.057-9.978-21.712-21.307-21.712h-6.356V142.5h1.768c3.222 0 10.495-3.318 11.433-13.675h3.425v30.662h-3.425c-.923-10.957-8.196-14.254-11.418-14.254h-1.783v31.06h7.065c7.898 0 16.114-5.627 21.828-23.825h3.129l-.522 26.543-70.673.005zm75.255 0v-2.718h2.388c3.326 0 5.824-5.93 7.487-10.251l21.411-56.7h21.725l25.671 66.951h5.735v2.718h-46.165v-2.718h7.481l-7.377-20.507h-21l-4.171 10.76c-2.909 7.539 1.246 9.747 3.947 9.747h2.81v2.718h-19.942zm27.752-51.472l-9.458 25.509h19.019l-9.561-25.509zm52.39-18.222h48.329v2.717h-8.629v53.075c0 6.938 5.214 10.055 12.268 10.055 9.149 0 15.072-3.823 15.072-21.712v-29.558c0-9.449-1.872-11.86-6.653-11.86h-2.7v-2.717h21.412v2.717h-3.431c-2.81 0-4.989 2.209-4.989 12.364v35.886c0 7.644-3.535 13.274-10.604 16.891-3.326 1.71-10.083 3.318-19.54 3.318a80.222 80.222 0 0 1-16.318-1.81c-6.966-1.407-15.802-5.128-15.802-20.204v-46.445h-8.415v-2.717zM201.24 105.52h-3.374l5.141-7.377h5.266l5.098 7.377h-3.331l-4.379-3.792-4.421 3.792z" fill="#fff"/></svg>